<svg t="1736565637706" class="icon" viewBox="0 0 1024 1024" version="1.1" xmlns="http://www.w3.org/2000/svg" p-id="5243" width="200" height="200"><path d="M364.8 236.8l-25.6-51.2c-140.8 64-230.4 204.8-230.4 364.8h57.6c0-134.4 76.8-256 198.4-313.6z m492.8 313.6h57.6c0-153.6-89.6-294.4-230.4-364.8l-25.6 51.2c115.2 57.6 198.4 179.2 198.4 313.6zM512 889.6c-76.8 0-160-25.6-217.6-76.8l-38.4 44.8c70.4 57.6 160 89.6 256 89.6s185.6-32 256-89.6l-38.4-44.8c-57.6 51.2-140.8 76.8-217.6 76.8z m332.8-128c-32 0-57.6-25.6-57.6-57.6s25.6-57.6 57.6-57.6 57.6 25.6 57.6 57.6-25.6 57.6-57.6 57.6z m0-166.4c-64 0-108.8 51.2-108.8 108.8s51.2 108.8 108.8 108.8S960 768 960 704s-51.2-108.8-115.2-108.8zM179.2 761.6c-32 0-57.6-25.6-57.6-57.6s25.6-57.6 57.6-57.6 57.6 25.6 57.6 57.6c-6.4 32-32 57.6-57.6 57.6z m0-166.4c-64 0-115.2 51.2-115.2 108.8s51.2 108.8 108.8 108.8S288 768 288 704c0-57.6-51.2-108.8-108.8-108.8zM512 134.4c32 0 57.6 25.6 57.6 57.6s-25.6 57.6-57.6 57.6-57.6-25.6-57.6-57.6c0-38.4 25.6-57.6 57.6-57.6z m0 166.4c64 0 108.8-51.2 108.8-108.8S576 76.8 512 76.8 403.2 128 403.2 185.6 448 300.8 512 300.8z" fill="#2e8555" p-id="5244"></path></svg>